<svg width="247" height="24" viewBox="0 0 247 24" fill="none" xmlns="http://www.w3.org/2000/svg">
<path d="M13.8252 15.59C13.8252 16.71 13.6052 17.73 13.1652 18.65C12.7452 19.55 12.1652 20.33 11.4252 20.99C10.7052 21.65 9.84516 22.16 8.84516 22.52C7.86516 22.88 6.80516 23.06 5.66516 23.06C4.86516 23.06 4.06516 22.85 3.26516 22.43C2.46516 21.99 1.69516 21.3 0.955156 20.36L3.17516 16.01C3.31516 16.27 3.52516 16.54 3.80516 16.82C4.08516 17.08 4.39516 17.31 4.73516 17.51C5.09516 17.71 5.44516 17.88 5.78516 18.02C6.14516 18.14 6.46516 18.2 6.74516 18.2C6.98516 18.2 7.23516 18.16 7.49516 18.08C7.75516 18 7.99516 17.88 8.21516 17.72C8.43516 17.56 8.60516 17.38 8.72516 17.18C8.86516 16.96 8.93516 16.71 8.93516 16.43C8.93516 15.95 8.77516 15.51 8.45516 15.11C8.15516 14.69 7.77516 14.3 7.31516 13.94C6.85516 13.56 6.35516 13.18 5.81516 12.8C5.27516 12.42 4.77516 12.02 4.31516 11.6C3.87516 11.18 3.49516 10.71 3.17516 10.19C2.85516 9.67 2.69516 9.09 2.69516 8.45C2.69516 7.41 3.00516 6.44 3.62516 5.54C4.24516 4.64 5.01516 3.87 5.93516 3.23C6.87516 2.57 7.89516 2.05 8.99516 1.67C10.0952 1.29 11.1352 1.1 12.1152 1.1C12.6552 1.1 13.1652 1.17 13.6452 1.31C14.1252 1.43 14.5352 1.64 14.8752 1.94C15.2352 2.22 15.5152 2.58 15.7152 3.02C15.9352 3.46 16.0452 4.01 16.0452 4.67C16.0452 4.95 16.0152 5.23 15.9552 5.51C15.9152 5.79 15.8752 6.09 15.8352 6.41L11.4852 7.67C11.5252 7.51 11.5552 7.35 11.5752 7.19C11.6152 7.03 11.6352 6.87 11.6352 6.71C11.6352 6.11 11.5252 5.68 11.3052 5.42C11.1052 5.14 10.8352 5 10.4952 5C10.3352 5 10.1352 5.06 9.89516 5.18C9.67516 5.3 9.44516 5.46 9.20516 5.66C8.98516 5.84 8.79516 6.06 8.63516 6.32C8.47516 6.58 8.39516 6.86 8.39516 7.16C8.39516 7.64 8.52516 8.04 8.78516 8.36C9.06516 8.68 9.40516 8.98 9.80516 9.26C10.2052 9.54 10.6352 9.83 11.0952 10.13C11.5752 10.41 12.0152 10.78 12.4152 11.24C12.8152 11.7 13.1452 12.28 13.4052 12.98C13.6852 13.66 13.8252 14.53 13.8252 15.59ZM25.9058 17.15C25.6258 18.29 25.2258 19.26 24.7058 20.06C24.2058 20.86 23.6058 21.52 22.9058 22.04C22.2258 22.56 21.4958 22.94 20.7158 23.18C19.9358 23.42 19.1558 23.54 18.3758 23.54C17.9158 23.54 17.4458 23.46 16.9658 23.3C16.4858 23.16 16.0558 22.94 15.6758 22.64C15.2958 22.34 14.9758 21.96 14.7158 21.5C14.4758 21.04 14.3558 20.5 14.3558 19.88C14.3558 19.8 14.3558 19.72 14.3558 19.64C14.3558 19.56 14.3658 19.48 14.3858 19.4C14.4658 18.58 14.5958 17.59 14.7758 16.43C14.9558 15.27 15.1458 14.06 15.3458 12.8C15.5458 11.54 15.7658 10.28 16.0058 9.02C16.2458 7.74 16.4558 6.58 16.6358 5.54C16.8358 4.5 17.0058 3.64 17.1458 2.96C17.2858 2.26 17.3758 1.83 17.4158 1.67C17.8358 1.63 18.3358 1.58 18.9158 1.52C19.4958 1.46 20.0358 1.41 20.5358 1.37C21.1558 1.31 21.7658 1.25 22.3658 1.19C21.8458 3.61 21.3858 5.8 20.9858 7.76C20.8058 8.6 20.6258 9.44 20.4458 10.28C20.2858 11.12 20.1258 11.89 19.9658 12.59C19.8258 13.29 19.6958 13.9 19.5758 14.42C19.4758 14.92 19.3858 15.33 19.3058 15.65C19.2458 15.97 19.1658 16.38 19.0658 16.88C18.9858 17.36 18.9458 17.8 18.9458 18.2C18.9458 18.52 19.0258 18.79 19.1858 19.01C19.3458 19.21 19.5458 19.31 19.7858 19.31C20.1258 19.31 20.4058 19.18 20.6258 18.92C20.8458 18.64 21.0258 18.31 21.1658 17.93C21.3258 17.55 21.4358 17.17 21.4958 16.79C21.5758 16.39 21.6458 16.08 21.7058 15.86C21.8258 15.28 21.9558 14.64 22.0958 13.94C22.2558 13.22 22.4058 12.48 22.5458 11.72C22.7058 10.94 22.8558 10.15 22.9958 9.35C23.1558 8.55 23.3058 7.77 23.4458 7.01C23.7858 5.25 24.1158 3.43 24.4358 1.55L28.9958 1.25C28.9958 1.25 28.9458 1.51 28.8458 2.03C28.7458 2.55 28.6158 3.24 28.4558 4.1C28.2958 4.96 28.1158 5.94 27.9158 7.04C27.7358 8.14 27.5258 9.29 27.2858 10.49C27.0458 11.67 26.8058 12.84 26.5658 14C26.3458 15.14 26.1258 16.19 25.9058 17.15ZM25.9041 23.03C26.5041 20.33 27.0741 17.69 27.6141 15.11C27.8341 14.03 28.0641 12.89 28.3041 11.69C28.5441 10.49 28.7741 9.31 28.9941 8.15C29.2141 6.99 29.4241 5.87 29.6241 4.79C29.8241 3.71 29.9941 2.72 30.1341 1.82C30.7141 1.64 31.2841 1.49 31.8441 1.37C32.4041 1.23 32.9741 1.11 33.5541 1.01C34.1541 0.909999 34.7141 0.859999 35.2341 0.859999C36.1341 0.859999 36.8841 1.01 37.4841 1.31C38.1041 1.61 38.6041 2.02 38.9841 2.54C39.3641 3.04 39.6341 3.63 39.7941 4.31C39.9541 4.99 40.0341 5.72 40.0341 6.5C40.0341 7.62 39.8241 8.7 39.4041 9.74C39.0041 10.78 38.4541 11.71 37.7541 12.53C37.0741 13.33 36.2841 13.97 35.3841 14.45C34.5041 14.93 33.5841 15.17 32.6241 15.17H32.2941C32.1341 15.85 31.9841 16.59 31.8441 17.39C31.7041 18.19 31.5841 18.93 31.4841 19.61C31.3441 20.41 31.2141 21.21 31.0941 22.01L25.9041 23.03ZM34.2741 4.49C34.0541 5.81 33.8341 7.06 33.6141 8.24C33.3941 9.42 33.1541 10.68 32.8941 12.02C33.2141 11.94 33.5441 11.76 33.8841 11.48C34.2441 11.18 34.5741 10.8 34.8741 10.34C35.1741 9.86 35.4141 9.31 35.5941 8.69C35.7741 8.07 35.8641 7.42 35.8641 6.74C35.8641 6 35.6941 5.44 35.3541 5.06C35.0341 4.68 34.6741 4.49 34.2741 4.49ZM37.6013 23.03L41.5313 1.7L51.0113 0.889999C50.8713 1.33 50.7513 1.78 50.6513 2.24C50.5513 2.62 50.4513 3.02 50.3513 3.44C50.2713 3.84 50.2013 4.2 50.1413 4.52C49.9413 4.54 49.6513 4.56 49.2713 4.58C48.9113 4.58 48.5213 4.59 48.1013 4.61C47.6813 4.61 47.2513 4.61 46.8113 4.61C46.3913 4.61 46.0213 4.61 45.7013 4.61L44.6513 9.98C45.2713 9.94 45.8513 9.91 46.3913 9.89C46.8313 9.87 47.2813 9.86 47.7413 9.86C48.2013 9.86 48.5413 9.85 48.7613 9.83C48.6813 10.39 48.6013 10.94 48.5213 11.48C48.4613 12.02 48.3813 12.57 48.2813 13.13C48.0813 13.15 47.7513 13.17 47.2913 13.19C46.8513 13.19 46.4013 13.2 45.9413 13.22C45.4213 13.24 44.8513 13.26 44.2313 13.28L43.2113 18.8L47.5913 18.11L47.2913 21.53L37.6013 23.03ZM47.7059 23.03C48.2459 20.37 48.7659 17.77 49.2659 15.23C49.4459 14.15 49.6459 13.03 49.8659 11.87C50.0859 10.69 50.2859 9.53 50.4659 8.39C50.6659 7.23 50.8459 6.12 51.0059 5.06C51.1859 3.98 51.3259 3 51.4259 2.12C52.5659 1.76 53.7959 1.5 55.1159 1.34C56.4359 1.16 57.7459 1.07 59.0459 1.07C59.8259 1.07 60.4659 1.16 60.9659 1.34C61.4859 1.52 61.8859 1.78 62.1659 2.12C62.4659 2.44 62.6759 2.82 62.7959 3.26C62.9159 3.7 62.9759 4.19 62.9759 4.73C62.9759 5.53 62.8359 6.32 62.5559 7.1C62.2759 7.86 61.8959 8.59 61.4159 9.29C60.9559 9.97 60.4159 10.6 59.7959 11.18C59.1959 11.74 58.5459 12.2 57.8459 12.56C58.2059 13.36 58.5859 14.24 58.9859 15.2C59.4059 16.14 59.7959 17.04 60.1559 17.9C60.5559 18.9 60.9659 19.9 61.3859 20.9L56.7359 22.52C56.3359 21.14 55.9759 19.84 55.6559 18.62C55.5159 18.12 55.3759 17.61 55.2359 17.09C55.0959 16.55 54.9659 16.05 54.8459 15.59C54.7259 15.11 54.6259 14.69 54.5459 14.33C54.4659 13.97 54.4159 13.69 54.3959 13.49L54.0059 13.61C53.8859 14.25 53.7359 15.03 53.5559 15.95C53.3959 16.87 53.2459 17.76 53.1059 18.62C52.9259 19.64 52.7459 20.69 52.5659 21.77L47.7059 23.03ZM54.7559 10.01C55.1359 9.97 55.5959 9.81 56.1359 9.53C56.6959 9.25 57.2259 8.92 57.7259 8.54C58.2259 8.14 58.6559 7.73 59.0159 7.31C59.3759 6.89 59.5559 6.52 59.5559 6.2C59.5559 5.98 59.4859 5.81 59.3459 5.69C59.2059 5.55 59.0059 5.45 58.7459 5.39C58.5059 5.31 58.2359 5.26 57.9359 5.24C57.6359 5.22 57.3259 5.21 57.0059 5.21C56.7859 5.21 56.5559 5.22 56.3159 5.24C56.0959 5.24 55.8959 5.24 55.7159 5.24L54.7559 10.01ZM67.0454 23.06C67.5654 20.3 68.0754 17.59 68.5754 14.93C68.7554 13.81 68.9554 12.65 69.1754 11.45C69.3954 10.23 69.6054 9.03 69.8054 7.85C70.0054 6.67 70.1954 5.53 70.3754 4.43C70.5554 3.31 70.7154 2.29 70.8554 1.37L75.7154 1.04C75.3754 2.44 75.0354 3.9 74.6954 5.42C74.3754 6.94 74.0754 8.42 73.7954 9.86L76.7654 9.53C77.0454 8.11 77.2954 6.74 77.5154 5.42C77.7354 4.08 78.0254 2.7 78.3854 1.28C78.8454 1.2 79.3554 1.14 79.9154 1.1C80.4754 1.04 80.9954 0.989999 81.4754 0.95C81.9554 0.909999 82.3554 0.879999 82.6754 0.859999C83.0154 0.819999 83.1854 0.8 83.1854 0.8C82.9054 1.7 82.6354 2.69 82.3754 3.77C82.1354 4.83 81.8954 5.94 81.6554 7.1C81.4154 8.24 81.1854 9.4 80.9654 10.58C80.7454 11.76 80.5454 12.88 80.3654 13.94C79.9254 16.48 79.5154 19.08 79.1354 21.74L74.4554 22.28C74.7154 21.08 74.9454 19.91 75.1454 18.77C75.3454 17.81 75.5454 16.81 75.7454 15.77C75.9654 14.73 76.1354 13.84 76.2554 13.1L73.3454 13.37C73.2054 14.13 73.0354 15.01 72.8354 16.01C72.6554 17.01 72.4854 17.96 72.3254 18.86C72.1054 19.94 71.8854 21.02 71.6654 22.1L67.0454 23.06ZM80.2869 23.03L84.2169 1.7L93.6969 0.889999C93.5569 1.33 93.4369 1.78 93.3369 2.24C93.2369 2.62 93.1369 3.02 93.0369 3.44C92.9569 3.84 92.8869 4.2 92.8269 4.52C92.6269 4.54 92.3369 4.56 91.9569 4.58C91.5969 4.58 91.2069 4.59 90.7869 4.61C90.3669 4.61 89.9369 4.61 89.4969 4.61C89.0769 4.61 88.7069 4.61 88.3869 4.61L87.3369 9.98C87.9569 9.94 88.5369 9.91 89.0769 9.89C89.5169 9.87 89.9669 9.86 90.4269 9.86C90.8869 9.86 91.2269 9.85 91.4469 9.83C91.3669 10.39 91.2869 10.94 91.2069 11.48C91.1469 12.02 91.0669 12.57 90.9669 13.13C90.7669 13.15 90.4369 13.17 89.9769 13.19C89.5369 13.19 89.0869 13.2 88.6269 13.22C88.1069 13.24 87.5369 13.26 86.9169 13.28L85.8969 18.8L90.2769 18.11L89.9769 21.53L80.2869 23.03ZM90.3915 23.03C90.9315 20.37 91.4515 17.77 91.9515 15.23C92.1315 14.15 92.3315 13.03 92.5515 11.87C92.7715 10.69 92.9715 9.53 93.1515 8.39C93.3515 7.23 93.5315 6.12 93.6915 5.06C93.8715 3.98 94.0115 3 94.1115 2.12C95.2515 1.76 96.4815 1.5 97.8015 1.34C99.1215 1.16 100.431 1.07 101.731 1.07C102.511 1.07 103.151 1.16 103.651 1.34C104.171 1.52 104.571 1.78 104.851 2.12C105.151 2.44 105.361 2.82 105.481 3.26C105.601 3.7 105.661 4.19 105.661 4.73C105.661 5.53 105.521 6.32 105.241 7.1C104.961 7.86 104.581 8.59 104.101 9.29C103.641 9.97 103.101 10.6 102.481 11.18C101.881 11.74 101.231 12.2 100.531 12.56C100.891 13.36 101.271 14.24 101.671 15.2C102.091 16.14 102.481 17.04 102.841 17.9C103.241 18.9 103.651 19.9 104.071 20.9L99.4215 22.52C99.0215 21.14 98.6615 19.84 98.3415 18.62C98.2015 18.12 98.0615 17.61 97.9215 17.09C97.7815 16.55 97.6515 16.05 97.5315 15.59C97.4115 15.11 97.3115 14.69 97.2315 14.33C97.1515 13.97 97.1015 13.69 97.0815 13.49L96.6915 13.61C96.5715 14.25 96.4215 15.03 96.2415 15.95C96.0815 16.87 95.9315 17.76 95.7915 18.62C95.6115 19.64 95.4315 20.69 95.2515 21.77L90.3915 23.03ZM97.4415 10.01C97.8215 9.97 98.2815 9.81 98.8215 9.53C99.3815 9.25 99.9115 8.92 100.411 8.54C100.911 8.14 101.341 7.73 101.701 7.31C102.061 6.89 102.241 6.52 102.241 6.2C102.241 5.98 102.171 5.81 102.031 5.69C101.891 5.55 101.691 5.45 101.431 5.39C101.191 5.31 100.921 5.26 100.621 5.24C100.321 5.22 100.011 5.21 99.6915 5.21C99.4715 5.21 99.2415 5.22 99.0015 5.24C98.7815 5.24 98.5815 5.24 98.4015 5.24L97.4415 10.01ZM119.669 6.77C119.669 8.41 119.489 9.96 119.129 11.42C118.789 12.86 118.329 14.19 117.749 15.41C117.169 16.61 116.489 17.69 115.709 18.65C114.949 19.59 114.149 20.4 113.309 21.08C112.469 21.74 111.619 22.25 110.759 22.61C109.899 22.95 109.079 23.12 108.299 23.12C107.639 23.12 107.039 23 106.499 22.76C105.959 22.5 105.489 22.13 105.089 21.65C104.689 21.15 104.369 20.52 104.129 19.76C103.909 18.98 103.799 18.05 103.799 16.97C103.799 15.85 103.939 14.67 104.219 13.43C104.499 12.19 104.879 10.96 105.359 9.74C105.839 8.52 106.429 7.36 107.129 6.26C107.829 5.16 108.599 4.19 109.439 3.35C110.279 2.49 111.179 1.81 112.139 1.31C113.099 0.809999 114.099 0.559999 115.139 0.559999C116.039 0.559999 116.779 0.749999 117.359 1.13C117.959 1.49 118.419 1.97 118.739 2.57C119.079 3.15 119.319 3.81 119.459 4.55C119.599 5.29 119.669 6.03 119.669 6.77ZM108.269 16.19C108.269 16.41 108.309 16.64 108.389 16.88C108.469 17.12 108.579 17.33 108.719 17.51C108.859 17.69 109.029 17.85 109.229 17.99C109.449 18.11 109.679 18.17 109.919 18.17C110.819 18.17 111.619 17.86 112.319 17.24C113.019 16.62 113.599 15.86 114.059 14.96C114.519 14.06 114.869 13.1 115.109 12.08C115.369 11.06 115.499 10.13 115.499 9.29C115.499 9.05 115.479 8.79 115.439 8.51C115.419 8.23 115.359 7.97 115.259 7.73C115.179 7.49 115.039 7.29 114.839 7.13C114.659 6.95 114.409 6.86 114.089 6.86C113.449 6.86 112.859 7.02 112.319 7.34C111.779 7.66 111.289 8.09 110.849 8.63C110.429 9.15 110.059 9.75 109.739 10.43C109.419 11.09 109.139 11.77 108.899 12.47C108.679 13.15 108.519 13.82 108.419 14.48C108.319 15.14 108.269 15.71 108.269 16.19ZM117.904 23.03L121.834 1.7L131.314 0.889999C131.174 1.33 131.054 1.78 130.954 2.24C130.854 2.62 130.754 3.02 130.654 3.44C130.574 3.84 130.504 4.2 130.444 4.52C130.244 4.54 129.954 4.56 129.574 4.58C129.214 4.58 128.824 4.59 128.404 4.61C127.984 4.61 127.554 4.61 127.114 4.61C126.694 4.61 126.324 4.61 126.004 4.61L124.954 9.98C125.574 9.94 126.154 9.91 126.694 9.89C127.134 9.87 127.584 9.86 128.044 9.86C128.504 9.86 128.844 9.85 129.064 9.83C128.984 10.39 128.904 10.94 128.824 11.48C128.764 12.02 128.684 12.57 128.584 13.13C128.384 13.15 128.054 13.17 127.594 13.19C127.154 13.19 126.704 13.2 126.244 13.22C125.724 13.24 125.154 13.26 124.534 13.28L123.514 18.8L127.894 18.11L127.594 21.53L117.904 23.03ZM141.179 15.59C141.179 16.71 140.959 17.73 140.519 18.65C140.099 19.55 139.519 20.33 138.779 20.99C138.059 21.65 137.199 22.16 136.199 22.52C135.219 22.88 134.159 23.06 133.019 23.06C132.219 23.06 131.419 22.85 130.619 22.43C129.819 21.99 129.049 21.3 128.309 20.36L130.529 16.01C130.669 16.27 130.879 16.54 131.159 16.82C131.439 17.08 131.749 17.31 132.089 17.51C132.449 17.71 132.799 17.88 133.139 18.02C133.499 18.14 133.819 18.2 134.099 18.2C134.339 18.2 134.589 18.16 134.849 18.08C135.109 18 135.349 17.88 135.569 17.72C135.789 17.56 135.959 17.38 136.079 17.18C136.219 16.96 136.289 16.71 136.289 16.43C136.289 15.95 136.129 15.51 135.809 15.11C135.509 14.69 135.129 14.3 134.669 13.94C134.209 13.56 133.709 13.18 133.169 12.8C132.629 12.42 132.129 12.02 131.669 11.6C131.229 11.18 130.849 10.71 130.529 10.19C130.209 9.67 130.049 9.09 130.049 8.45C130.049 7.41 130.359 6.44 130.979 5.54C131.599 4.64 132.369 3.87 133.289 3.23C134.229 2.57 135.249 2.05 136.349 1.67C137.449 1.29 138.489 1.1 139.469 1.1C140.009 1.1 140.519 1.17 140.999 1.31C141.479 1.43 141.889 1.64 142.229 1.94C142.589 2.22 142.869 2.58 143.069 3.02C143.289 3.46 143.399 4.01 143.399 4.67C143.399 4.95 143.369 5.23 143.309 5.51C143.269 5.79 143.229 6.09 143.189 6.41L138.839 7.67C138.879 7.51 138.909 7.35 138.929 7.19C138.969 7.03 138.989 6.87 138.989 6.71C138.989 6.11 138.879 5.68 138.659 5.42C138.459 5.14 138.189 5 137.849 5C137.689 5 137.489 5.06 137.249 5.18C137.029 5.3 136.799 5.46 136.559 5.66C136.339 5.84 136.149 6.06 135.989 6.32C135.829 6.58 135.749 6.86 135.749 7.16C135.749 7.64 135.879 8.04 136.139 8.36C136.419 8.68 136.759 8.98 137.159 9.26C137.559 9.54 137.989 9.83 138.449 10.13C138.929 10.41 139.369 10.78 139.769 11.24C140.169 11.7 140.499 12.28 140.759 12.98C141.039 13.66 141.179 14.53 141.179 15.59ZM161.909 7.67C161.909 8.71 161.759 9.82 161.459 11C161.159 12.16 160.739 13.32 160.199 14.48C159.659 15.62 158.989 16.72 158.189 17.78C157.409 18.82 156.519 19.74 155.519 20.54C154.519 21.32 153.419 21.95 152.219 22.43C151.039 22.91 149.779 23.15 148.439 23.15C148.159 23.15 147.879 23.13 147.599 23.09C147.319 23.07 147.039 23.04 146.759 23C147.299 20.24 147.829 17.55 148.349 14.93C148.549 13.83 148.759 12.69 148.979 11.51C149.199 10.31 149.409 9.13 149.609 7.97C149.809 6.81 149.999 5.7 150.179 4.64C150.379 3.58 150.539 2.62 150.659 1.76C151.519 1.6 152.389 1.45 153.269 1.31C154.149 1.17 155.049 1.1 155.969 1.1C157.049 1.1 157.959 1.27 158.699 1.61C159.459 1.95 160.069 2.42 160.529 3.02C161.009 3.62 161.359 4.32 161.579 5.12C161.799 5.92 161.909 6.77 161.909 7.67ZM154.829 5.33C154.609 6.51 154.379 7.64 154.139 8.72C153.899 9.8 153.659 10.89 153.419 11.99C153.179 13.09 152.939 14.24 152.699 15.44C152.459 16.64 152.229 17.95 152.009 19.37C152.489 19.05 152.949 18.62 153.389 18.08C153.849 17.52 154.279 16.88 154.679 16.16C155.079 15.44 155.439 14.68 155.759 13.88C156.099 13.08 156.389 12.3 156.629 11.54C156.869 10.78 157.049 10.07 157.169 9.41C157.309 8.75 157.379 8.18 157.379 7.7C157.379 6.96 157.169 6.38 156.749 5.96C156.349 5.54 155.709 5.33 154.829 5.33ZM170.657 22.4C170.157 22.48 169.607 22.57 169.007 22.67C168.407 22.77 167.867 22.86 167.387 22.94C167.467 22.28 167.547 21.63 167.627 20.99C167.687 20.43 167.737 19.87 167.777 19.31C167.837 18.75 167.887 18.27 167.927 17.87H165.317L164.117 22.19C163.677 22.25 163.157 22.32 162.557 22.4C161.957 22.46 161.397 22.52 160.877 22.58C160.237 22.66 159.607 22.74 158.987 22.82C159.787 20.16 160.577 17.54 161.357 14.96C161.677 13.88 162.007 12.75 162.347 11.57C162.707 10.39 163.057 9.22 163.397 8.06C163.757 6.88 164.097 5.75 164.417 4.67C164.737 3.59 165.017 2.6 165.257 1.7C166.617 1.6 167.997 1.48 169.397 1.34C170.817 1.2 172.197 1.01 173.537 0.769998C173.477 1.41 173.407 2.21 173.327 3.17C173.267 4.11 173.207 5.14 173.147 6.26C173.087 7.38 173.027 8.55 172.967 9.77C172.907 10.99 172.847 12.19 172.787 13.37C172.687 16.13 172.577 19.06 172.457 22.16C171.857 22.26 171.257 22.34 170.657 22.4ZM166.037 14.87C166.117 14.87 166.257 14.87 166.457 14.87C166.677 14.85 166.897 14.84 167.117 14.84C167.357 14.82 167.577 14.81 167.777 14.81C167.977 14.79 168.117 14.77 168.197 14.75C168.197 14.63 168.207 14.43 168.227 14.15C168.267 13.85 168.297 13.52 168.317 13.16C168.357 12.78 168.397 12.37 168.437 11.93C168.477 11.49 168.517 11.06 168.557 10.64C168.637 9.62 168.737 8.52 168.857 7.34L169.037 4.73L168.587 4.76L167.897 7.34L166.037 14.87ZM174.182 23.03C174.642 20.83 175.082 18.66 175.502 16.52C175.682 15.62 175.862 14.68 176.042 13.7C176.222 12.72 176.392 11.76 176.552 10.82C176.732 9.86 176.882 8.94 177.002 8.06C177.142 7.16 177.262 6.34 177.362 5.6C176.902 5.54 176.432 5.52 175.952 5.54C175.492 5.56 175.032 5.5 174.572 5.36C174.592 5.04 174.602 4.67 174.602 4.25C174.602 3.83 174.612 3.41 174.632 2.99C174.652 2.53 174.672 2.04 174.692 1.52C175.212 1.56 175.732 1.59 176.252 1.61C176.772 1.63 177.292 1.64 177.812 1.64C178.832 1.64 179.812 1.62 180.752 1.58C181.712 1.52 182.592 1.46 183.392 1.4C184.212 1.32 185.012 1.23 185.792 1.13L185.462 2.75C185.362 3.21 185.262 3.68 185.162 4.16C185.082 4.64 185.002 5.05 184.922 5.39C184.482 5.51 184.032 5.6 183.572 5.66C183.132 5.7 182.692 5.76 182.252 5.84C182.112 6.52 181.962 7.28 181.802 8.12C181.642 8.94 181.482 9.8 181.322 10.7C181.182 11.58 181.042 12.48 180.902 13.4C180.762 14.32 180.622 15.2 180.482 16.04C180.162 18.02 179.862 20.07 179.582 22.19L174.182 23.03ZM192.747 22.4C192.247 22.48 191.697 22.57 191.097 22.67C190.497 22.77 189.957 22.86 189.477 22.94C189.557 22.28 189.637 21.63 189.717 20.99C189.777 20.43 189.827 19.87 189.867 19.31C189.927 18.75 189.977 18.27 190.017 17.87H187.407L186.207 22.19C185.767 22.25 185.247 22.32 184.647 22.4C184.047 22.46 183.487 22.52 182.967 22.58C182.327 22.66 181.697 22.74 181.077 22.82C181.877 20.16 182.667 17.54 183.447 14.96C183.767 13.88 184.097 12.75 184.437 11.57C184.797 10.39 185.147 9.22 185.487 8.06C185.847 6.88 186.187 5.75 186.507 4.67C186.827 3.59 187.107 2.6 187.347 1.7C188.707 1.6 190.087 1.48 191.487 1.34C192.907 1.2 194.287 1.01 195.627 0.769998C195.567 1.41 195.497 2.21 195.417 3.17C195.357 4.11 195.297 5.14 195.237 6.26C195.177 7.38 195.117 8.55 195.057 9.77C194.997 10.99 194.937 12.19 194.877 13.37C194.777 16.13 194.667 19.06 194.547 22.16C193.947 22.26 193.347 22.34 192.747 22.4ZM188.127 14.87C188.207 14.87 188.347 14.87 188.547 14.87C188.767 14.85 188.987 14.84 189.207 14.84C189.447 14.82 189.667 14.81 189.867 14.81C190.067 14.79 190.207 14.77 190.287 14.75C190.287 14.63 190.297 14.43 190.317 14.15C190.357 13.85 190.387 13.52 190.407 13.16C190.447 12.78 190.487 12.37 190.527 11.93C190.567 11.49 190.607 11.06 190.647 10.64C190.727 9.62 190.827 8.52 190.947 7.34L191.127 4.73L190.677 4.76L189.987 7.34L188.127 14.87ZM208.246 15.47C208.246 16.29 208.076 17.05 207.736 17.75C207.396 18.45 206.936 19.09 206.356 19.67C205.776 20.23 205.096 20.73 204.316 21.17C203.556 21.59 202.746 21.95 201.886 22.25C201.046 22.53 200.176 22.75 199.276 22.91C198.396 23.05 197.546 23.12 196.726 23.12C195.986 23.12 195.296 23.06 194.656 22.94C195.616 19.44 196.376 15.92 196.936 12.38C197.516 8.82 198.066 5.24 198.586 1.64C199.626 1.42 200.706 1.23 201.826 1.07C202.946 0.89 204.106 0.8 205.306 0.8C205.806 0.8 206.336 0.86 206.896 0.979999C207.456 1.1 207.966 1.32 208.426 1.64C208.886 1.96 209.266 2.38 209.566 2.9C209.886 3.42 210.046 4.08 210.046 4.88C210.046 5.64 209.916 6.35 209.656 7.01C209.416 7.67 209.096 8.27 208.696 8.81C208.316 9.35 207.876 9.82 207.376 10.22C206.876 10.6 206.366 10.89 205.846 11.09C206.106 11.23 206.376 11.43 206.656 11.69C206.936 11.95 207.196 12.26 207.436 12.62C207.676 12.96 207.866 13.37 208.006 13.85C208.166 14.33 208.246 14.87 208.246 15.47ZM201.376 12.35C201.296 12.83 201.216 13.26 201.136 13.64C201.076 14 201.016 14.35 200.956 14.69C200.896 15.03 200.826 15.39 200.746 15.77C200.686 16.13 200.616 16.56 200.536 17.06C200.916 17.02 201.346 16.95 201.826 16.85C202.306 16.75 202.766 16.6 203.206 16.4C203.646 16.18 204.016 15.9 204.316 15.56C204.616 15.2 204.766 14.77 204.766 14.27C204.766 13.91 204.666 13.61 204.466 13.37C204.286 13.13 204.046 12.93 203.746 12.77C203.466 12.61 203.156 12.5 202.816 12.44C202.476 12.36 202.156 12.32 201.856 12.32C201.756 12.32 201.666 12.32 201.586 12.32C201.526 12.32 201.456 12.33 201.376 12.35ZM202.726 5.09C202.686 5.31 202.636 5.57 202.576 5.87C202.536 6.17 202.486 6.49 202.426 6.83C202.366 7.15 202.296 7.47 202.216 7.79C202.156 8.11 202.106 8.39 202.066 8.63C202.506 8.55 202.946 8.44 203.386 8.3C203.826 8.16 204.216 8.01 204.556 7.85C204.916 7.67 205.196 7.48 205.396 7.28C205.616 7.08 205.726 6.86 205.726 6.62C205.726 6.32 205.636 6.08 205.456 5.9C205.276 5.7 205.036 5.54 204.736 5.42C204.456 5.3 204.156 5.22 203.836 5.18C203.536 5.12 203.266 5.09 203.026 5.09H202.726ZM218.558 22.4C218.058 22.48 217.508 22.57 216.908 22.67C216.308 22.77 215.768 22.86 215.288 22.94C215.368 22.28 215.448 21.63 215.528 20.99C215.588 20.43 215.638 19.87 215.678 19.31C215.738 18.75 215.788 18.27 215.828 17.87H213.218L212.018 22.19C211.578 22.25 211.058 22.32 210.458 22.4C209.858 22.46 209.298 22.52 208.778 22.58C208.138 22.66 207.508 22.74 206.888 22.82C207.688 20.16 208.478 17.54 209.258 14.96C209.578 13.88 209.908 12.75 210.248 11.57C210.608 10.39 210.958 9.22 211.298 8.06C211.658 6.88 211.998 5.75 212.318 4.67C212.638 3.59 212.918 2.6 213.158 1.7C214.518 1.6 215.898 1.48 217.298 1.34C218.718 1.2 220.098 1.01 221.438 0.769998C221.378 1.41 221.308 2.21 221.228 3.17C221.168 4.11 221.108 5.14 221.048 6.26C220.988 7.38 220.928 8.55 220.868 9.77C220.808 10.99 220.748 12.19 220.688 13.37C220.588 16.13 220.478 19.06 220.358 22.16C219.758 22.26 219.158 22.34 218.558 22.4ZM213.938 14.87C214.018 14.87 214.158 14.87 214.358 14.87C214.578 14.85 214.798 14.84 215.018 14.84C215.258 14.82 215.478 14.81 215.678 14.81C215.878 14.79 216.018 14.77 216.098 14.75C216.098 14.63 216.108 14.43 216.128 14.15C216.168 13.85 216.198 13.52 216.218 13.16C216.258 12.78 216.298 12.37 216.338 11.93C216.378 11.49 216.418 11.06 216.458 10.64C216.538 9.62 216.638 8.52 216.758 7.34L216.938 4.73L216.488 4.76L215.798 7.34L213.938 14.87ZM233.64 15.59C233.64 16.71 233.42 17.73 232.98 18.65C232.56 19.55 231.98 20.33 231.24 20.99C230.52 21.65 229.66 22.16 228.66 22.52C227.68 22.88 226.62 23.06 225.48 23.06C224.68 23.06 223.88 22.85 223.08 22.43C222.28 21.99 221.51 21.3 220.77 20.36L222.99 16.01C223.13 16.27 223.34 16.54 223.62 16.82C223.9 17.08 224.21 17.31 224.55 17.51C224.91 17.71 225.26 17.88 225.6 18.02C225.96 18.14 226.28 18.2 226.56 18.2C226.8 18.2 227.05 18.16 227.31 18.08C227.57 18 227.81 17.88 228.03 17.72C228.25 17.56 228.42 17.38 228.54 17.18C228.68 16.96 228.75 16.71 228.75 16.43C228.75 15.95 228.59 15.51 228.27 15.11C227.97 14.69 227.59 14.3 227.13 13.94C226.67 13.56 226.17 13.18 225.63 12.8C225.09 12.42 224.59 12.02 224.13 11.6C223.69 11.18 223.31 10.71 222.99 10.19C222.67 9.67 222.51 9.09 222.51 8.45C222.51 7.41 222.82 6.44 223.44 5.54C224.06 4.64 224.83 3.87 225.75 3.23C226.69 2.57 227.71 2.05 228.81 1.67C229.91 1.29 230.95 1.1 231.93 1.1C232.47 1.1 232.98 1.17 233.46 1.31C233.94 1.43 234.35 1.64 234.69 1.94C235.05 2.22 235.33 2.58 235.53 3.02C235.75 3.46 235.86 4.01 235.86 4.67C235.86 4.95 235.83 5.23 235.77 5.51C235.73 5.79 235.69 6.09 235.65 6.41L231.3 7.67C231.34 7.51 231.37 7.35 231.39 7.19C231.43 7.03 231.45 6.87 231.45 6.71C231.45 6.11 231.34 5.68 231.12 5.42C230.92 5.14 230.65 5 230.31 5C230.15 5 229.95 5.06 229.71 5.18C229.49 5.3 229.26 5.46 229.02 5.66C228.8 5.84 228.61 6.06 228.45 6.32C228.29 6.58 228.21 6.86 228.21 7.16C228.21 7.64 228.34 8.04 228.6 8.36C228.88 8.68 229.22 8.98 229.62 9.26C230.02 9.54 230.45 9.83 230.91 10.13C231.39 10.41 231.83 10.78 232.23 11.24C232.63 11.7 232.96 12.28 233.22 12.98C233.5 13.66 233.64 14.53 233.64 15.59ZM233.48 23.03L237.41 1.7L246.89 0.889999C246.75 1.33 246.63 1.78 246.53 2.24C246.43 2.62 246.33 3.02 246.23 3.44C246.15 3.84 246.08 4.2 246.02 4.52C245.82 4.54 245.53 4.56 245.15 4.58C244.79 4.58 244.4 4.59 243.98 4.61C243.56 4.61 243.13 4.61 242.69 4.61C242.27 4.61 241.9 4.61 241.58 4.61L240.53 9.98C241.15 9.94 241.73 9.91 242.27 9.89C242.71 9.87 243.16 9.86 243.62 9.86C244.08 9.86 244.42 9.85 244.64 9.83C244.56 10.39 244.48 10.94 244.4 11.48C244.34 12.02 244.26 12.57 244.16 13.13C243.96 13.15 243.63 13.17 243.17 13.19C242.73 13.19 242.28 13.2 241.82 13.22C241.3 13.24 240.73 13.26 240.11 13.28L239.09 18.8L243.47 18.11L243.17 21.53L233.48 23.03Z" fill="#FFC01E"/>
</svg>
